999
dxflib 3.26.4.0
  0
SECTION
  2
HEADER
  9
$ACADVER
  1
AC1015
  9
$HANDSEED
  5
FFFF
  9
$DIMADEC
 70
0
  9
$DIMASZ
 40
2.5
  9
$DIMATFIT
 70
0
  9
$DIMAUNIT
 70
0
  9
$DIMAZIN
 70
2
  9
$DIMBLK
  1

  9
$DIMDEC
 70
4
  9
$DIMDLI
 40
5.0
  9
$DIMDSEP
 70
46
  9
$DIMEXE
 40
1.25
  9
$DIMEXO
 40
0.625
  9
$DIMGAP
 40
0.625
  9
$DIMLFAC
 40
1.0
  9
$DIMLUNIT
 70
2
  9
$DIMSCALE
 40
1.0
  9
$DIMTAD
 70
1
  9
$DIMTIH
 70
0
  9
$DIMTSZ
 40
0.0
  9
$DIMTXT
 40
2.5
  9
$DIMZIN
 70
8
  9
$DWGCODEPAGE
  3
ANSI_1252
  9
$INSUNITS
 70
4
  9
$LTSCALE
 40
1.0
  9
$MAXACTVP
 70
64
  9
$MEASUREMENT
 70
1
  9
$MIRRTEXT
 70
0
  9
$PDMODE
 70
0
  9
$PDSIZE
 40
0.0
  0
ENDSEC
  0
SECTION
  2
TABLES
  0
TABLE
  2
VPORT
  5
8
100
AcDbSymbolTable
 70
1
  0
VPORT
  5
30
100
AcDbSymbolTableRecord
100
AcDbViewportTableRecord
  2
*Active
 70
0
 10
0.0
 20
0.0
 11
1.0
 21
1.0
 12
286.3055555555554861
 22
148.5
 13
0.0
 23
0.0
 14
10.0
 24
10.0
 15
10.0
 25
10.0
 16
0.0
 26
0.0
 36
1.0
 17
0.0
 27
0.0
 37
0.0
 40
297.0
 41
1.92798353909465
 42
50.0
 43
0.0
 44
0.0
 50
0.0
 51
0.0
 71
0
 72
100
 73
1
 74
3
 75
1
 76
1
 77
0
 78
0
281
0
 65
1
110
0.0
120
0.0
130
0.0
111
1.0
121
0.0
131
0.0
112
0.0
122
1.0
132
0.0
 79
0
146
0.0
  0
ENDTAB
  0
TABLE
  2
LTYPE
  5
5
100
AcDbSymbolTable
 70
41
  0
LTYPE
  5
16
100
AcDbSymbolTableRecord
100
AcDbLinetypeTableRecord
  2
Continuous
 70
0
  3
Solid line
 72
65
 73
0
 40
0.0
  0
LTYPE
  5
31
100
AcDbSymbolTableRecord
100
AcDbLinetypeTableRecord
  2
HIDDEN
 70
0
  3
Hidden __ __ __ __ __ __ __ __ __ __ __ __ __ __
 72
65
 73
2
 40
9.5249999999999986
 49
6.3499999999999996
 74
0
 49
-3.1749999999999998
 74
0
  0
LTYPE
  5
32
100
AcDbSymbolTableRecord
100
AcDbLinetypeTableRecord
  2
CENTER
 70
0
  3
Center ____ _ ____ _ ____ _ ____ _ ____ _ ____
 72
65
 73
4
 40
50.8000000000000043
 49
31.75
 74
0
 49
-6.3499999999999996
 74
0
 49
6.3499999999999996
 74
0
 49
-6.3499999999999996
 74
0
  0
LTYPE
  5
33
100
AcDbSymbolTableRecord
100
AcDbLinetypeTableRecord
  2
ACAD_ISO09W100
 70
0
  3
ISO long-dash double-short-dash ____ __ __ ____
 72
65
 73
6
 40
45.0
 49
24.0
 74
0
 49
-3.0
 74
0
 49
6.0
 74
0
 49
-3.0
 74
0
 49
6.0
 74
0
 49
-3.0
 74
0
  0
LTYPE
  5
15
100
AcDbSymbolTableRecord
100
AcDbLinetypeTableRecord
  2
BYLAYER
 70
0
  3

 72
65
 73
0
 40
0.0
  0
LTYPE
  5
34
100
AcDbSymbolTableRecord
100
AcDbLinetypeTableRecord
  2
ACAD_ISO14W100
 70
0
  3
ISO dash triple-dot __ . . . __ . . . __ . . . _
 72
65
 73
8
 40
24.0
 49
12.0
 74
0
 49
-3.0
 74
0
 49
0.0
 74
0
 49
-3.0
 74
0
 49
0.0
 74
0
 49
-3.0
 74
0
 49
0.0
 74
0
 49
-3.0
 74
0
  0
LTYPE
  5
35
100
AcDbSymbolTableRecord
100
AcDbLinetypeTableRecord
  2
DOT2
 70
0
  3
Dot (.5x) ........................................
 72
65
 73
2
 40
3.1749999999999998
 49
0.0
 74
0
 49
-3.1749999999999998
 74
0
  0
LTYPE
  5
14
100
AcDbSymbolTableRecord
100
AcDbLinetypeTableRecord
  2
BYBLOCK
 70
0
  3

 72
65
 73
0
 40
0.0
  0
LTYPE
  5
36
100
AcDbSymbolTableRecord
100
AcDbLinetypeTableRecord
  2
ACAD_ISO06W100
 70
0
  3
ISO long-dash triple-dot ____ ... ____ ... ____
 72
65
 73
8
 40
36.0
 49
24.0
 74
0
 49
-3.0
 74
0
 49
0.0
 74
0
 49
-3.0
 74
0
 49
0.0
 74
0
 49
-3.0
 74
0
 49
0.0
 74
0
 49
-3.0
 74
0
  0
LTYPE
  5
37
100
AcDbSymbolTableRecord
100
AcDbLinetypeTableRecord
  2
ACAD_ISO07W100
 70
0
  3
ISO dot . . . . . . . . . . . . . . . . . . . . 
 72
65
 73
2
 40
3.0
 49
0.0
 74
0
 49
-3.0
 74
0
  0
LTYPE
  5
38
100
AcDbSymbolTableRecord
100
AcDbLinetypeTableRecord
  2
DIVIDE2
 70
0
  3
Divide (.5x) __..__..__..__..__..__..__..__.._
 72
65
 73
6
 40
15.875
 49
6.3499999999999996
 74
0
 49
-3.1749999999999998
 74
0
 49
0.0
 74
0
 49
-3.1749999999999998
 74
0
 49
0.0
 74
0
 49
-3.1749999999999998
 74
0
  0
LTYPE
  5
39
100
AcDbSymbolTableRecord
100
AcDbLinetypeTableRecord
  2
DASHDOTX2
 70
0
  3
Dash dot (2x) ____  .  ____  .  ____  .  ___
 72
65
 73
4
 40
50.7999999999999972
 49
25.3999999999999986
 74
0
 49
-12.6999999999999993
 74
0
 49
0.0
 74
0
 49
-12.6999999999999993
 74
0
  0
LTYPE
  5
3A
100
AcDbSymbolTableRecord
100
AcDbLinetypeTableRecord
  2
ACAD_ISO10W100
 70
0
  3
ISO dash dot __ . __ . __ . __ . __ . __ . __ . 
 72
65
 73
4
 40
18.0
 49
12.0
 74
0
 49
-3.0
 74
0
 49
0.0
 74
0
 49
-3.0
 74
0
  0
LTYPE
  5
3B
100
AcDbSymbolTableRecord
100
AcDbLinetypeTableRecord
  2
DIVIDE
 70
0
  3
Divide ____ . . ____ . . ____ . . ____ . . ____
 72
65
 73
6
 40
31.75
 49
12.6999999999999993
 74
0
 49
-6.3499999999999996
 74
0
 49
0.0
 74
0
 49
-6.3499999999999996
 74
0
 49
0.0
 74
0
 49
-6.3499999999999996
 74
0
  0
LTYPE
  5
3C
100
AcDbSymbolTableRecord
100
AcDbLinetypeTableRecord
  2
ACAD_ISO03W100
 70
0
  3
ISO dash space __    __    __    __    __    __
 72
65
 73
2
 40
30.0
 49
12.0
 74
0
 49
-18.0
 74
0
  0
LTYPE
  5
3D
100
AcDbSymbolTableRecord
100
AcDbLinetypeTableRecord
  2
DASHED2
 70
0
  3
Dashed (.5x) _ _ _ _ _ _ _ _ _ _ _ _ _ _ _ _ _ 
 72
65
 73
2
 40
9.5249999999999986
 49
6.3499999999999996
 74
0
 49
-3.1749999999999998
 74
0
  0
LTYPE
  5
3E
100
AcDbSymbolTableRecord
100
AcDbLinetypeTableRecord
  2
DOT
 70
0
  3
Dot . . . . . . . . . . . . . . . . . . . . . . . .
 72
65
 73
2
 40
6.3499999999999996
 49
0.0
 74
0
 49
-6.3499999999999996
 74
0
  0
LTYPE
  5
3F
100
AcDbSymbolTableRecord
100
AcDbLinetypeTableRecord
  2
DASHDOT
 70
0
  3
Dash dot __ . __ . __ . __ . __ . __ . __ . __
 72
65
 73
4
 40
25.3999999999999986
 49
12.6999999999999993
 74
0
 49
-6.3499999999999996
 74
0
 49
0.0
 74
0
 49
-6.3499999999999996
 74
0
  0
LTYPE
  5
40
100
AcDbSymbolTableRecord
100
AcDbLinetypeTableRecord
  2
BORDERX2
 70
0
  3
Border (2x) ____  ____  .  ____  ____  .  ___
 72
65
 73
6
 40
88.8999999999999915
 49
25.3999999999999986
 74
0
 49
-12.6999999999999993
 74
0
 49
25.3999999999999986
 74
0
 49
-12.6999999999999993
 74
0
 49
0.0
 74
0
 49
-12.6999999999999993
 74
0
  0
LTYPE
  5
41
100
AcDbSymbolTableRecord
100
AcDbLinetypeTableRecord
  2
HIDDEN2
 70
0
  3
Hidden (.5x) _ _ _ _ _ _ _ _ _ _ _ _ _ _ _ _ _ 
 72
65
 73
2
 40
4.7624999999999993
 49
3.1749999999999998
 74
0
 49
-1.5874999999999999
 74
0
  0
LTYPE
  5
42
100
AcDbSymbolTableRecord
100
AcDbLinetypeTableRecord
  2
PHANTOM
 70
0
  3
Phantom ______  __  __  ______  __  __  ______ 
 72
65
 73
6
 40
63.5000000000000071
 49
31.75
 74
0
 49
-6.3499999999999996
 74
0
 49
6.3499999999999996
 74
0
 49
-6.3499999999999996
 74
0
 49
6.3499999999999996
 74
0
 49
-6.3499999999999996
 74
0
  0
LTYPE
  5
43
100
AcDbSymbolTableRecord
100
AcDbLinetypeTableRecord
  2
ACAD_ISO04W100
 70
0
  3
ISO long-dash dot ____ . ____ . ____ . ____ . _
 72
65
 73
4
 40
30.0
 49
24.0
 74
0
 49
-3.0
 74
0
 49
0.0
 74
0
 49
-3.0
 74
0
  0
LTYPE
  5
44
100
AcDbSymbolTableRecord
100
AcDbLinetypeTableRecord
  2
PHANTOM2
 70
0
  3
Phantom (.5x) ___ _ _ ___ _ _ ___ _ _ ___ _ _
 72
65
 73
6
 40
31.7500000000000036
 49
15.875
 74
0
 49
-3.1749999999999998
 74
0
 49
3.1749999999999998
 74
0
 49
-3.1749999999999998
 74
0
 49
3.1749999999999998
 74
0
 49
-3.1749999999999998
 74
0
  0
LTYPE
  5
45
100
AcDbSymbolTableRecord
100
AcDbLinetypeTableRecord
  2
DASHEDX2
 70
0
  3
Dashed (2x) ____  ____  ____  ____  ____  ___
 72
65
 73
2
 40
38.0999999999999943
 49
25.3999999999999986
 74
0
 49
-12.6999999999999993
 74
0
  0
LTYPE
  5
46
100
AcDbSymbolTableRecord
100
AcDbLinetypeTableRecord
  2
CENTER2
 70
0
  3
Center (.5x) ___ _ ___ _ ___ _ ___ _ ___ _ ___
 72
65
 73
4
 40
28.5750000000000028
 49
19.0500000000000007
 74
0
 49
-3.1749999999999998
 74
0
 49
3.1749999999999998
 74
0
 49
-3.1749999999999998
 74
0
  0
LTYPE
  5
47
100
AcDbSymbolTableRecord
100
AcDbLinetypeTableRecord
  2
DIVIDEX2
 70
0
  3
Divide (2x) ________  .  .  ________  .  .  _
 72
65
 73
6
 40
63.5
 49
25.3999999999999986
 74
0
 49
-12.6999999999999993
 74
0
 49
0.0
 74
0
 49
-12.6999999999999993
 74
0
 49
0.0
 74
0
 49
-12.6999999999999993
 74
0
  0
LTYPE
  5
48
100
AcDbSymbolTableRecord
100
AcDbLinetypeTableRecord
  2
ACAD_ISO12W100
 70
0
  3
ISO dash double-dot __ . . __ . . __ . . __ . . 
 72
65
 73
6
 40
21.0
 49
12.0
 74
0
 49
-3.0
 74
0
 49
0.0
 74
0
 49
-3.0
 74
0
 49
0.0
 74
0
 49
-3.0
 74
0
  0
LTYPE
  5
49
100
AcDbSymbolTableRecord
100
AcDbLinetypeTableRecord
  2
ACAD_ISO15W100
 70
0
  3
ISO double-dash triple-dot __ __ . . . __ __ . .
 72
65
 73
10
 40
39.0
 49
12.0
 74
0
 49
-3.0
 74
0
 49
12.0
 74
0
 49
-3.0
 74
0
 49
0.0
 74
0
 49
-3.0
 74
0
 49
0.0
 74
0
 49
-3.0
 74
0
 49
0.0
 74
0
 49
-3.0
 74
0
  0
LTYPE
  5
4A
100
AcDbSymbolTableRecord
100
AcDbLinetypeTableRecord
  2
DASHDOT2
 70
0
  3
Dash dot (.5x) _._._._._._._._._._._._._._._.
 72
65
 73
4
 40
12.6999999999999993
 49
6.3499999999999996
 74
0
 49
-3.1749999999999998
 74
0
 49
0.0
 74
0
 49
-3.1749999999999998
 74
0
  0
LTYPE
  5
4B
100
AcDbSymbolTableRecord
100
AcDbLinetypeTableRecord
  2
ACAD_ISO08W100
 70
0
  3
ISO long-dash short-dash ____ __ ____ __ ____ _
 72
65
 73
4
 40
36.0
 49
24.0
 74
0
 49
-3.0
 74
0
 49
6.0
 74
0
 49
-3.0
 74
0
  0
LTYPE
  5
4C
100
AcDbSymbolTableRecord
100
AcDbLinetypeTableRecord
  2
CENTERX2
 70
0
  3
Center (2x) ________  __  ________  __  _____
 72
65
 73
4
 40
101.6000000000000085
 49
63.5
 74
0
 49
-12.6999999999999993
 74
0
 49
12.6999999999999993
 74
0
 49
-12.6999999999999993
 74
0
  0
LTYPE
  5
4D
100
AcDbSymbolTableRecord
100
AcDbLinetypeTableRecord
  2
ACAD_ISO05W100
 70
0
  3
ISO long-dash double-dot ____ .. ____ .. ____ . 
 72
65
 73
6
 40
33.0
 49
24.0
 74
0
 49
-3.0
 74
0
 49
0.0
 74
0
 49
-3.0
 74
0
 49
0.0
 74
0
 49
-3.0
 74
0
  0
LTYPE
  5
4E
100
AcDbSymbolTableRecord
100
AcDbLinetypeTableRecord
  2
HIDDENX2
 70
0
  3
Hidden (2x) ____ ____ ____ ____ ____ ____ ____ 
 72
65
 73
2
 40
19.0499999999999972
 49
12.6999999999999993
 74
0
 49
-6.3499999999999996
 74
0
  0
LTYPE
  5
4F
100
AcDbSymbolTableRecord
100
AcDbLinetypeTableRecord
  2
ACAD_ISO02W100
 70
0
  3
ISO dash __ __ __ __ __ __ __ __ __ __ __ __ __
 72
65
 73
2
 40
15.0
 49
12.0
 74
0
 49
-3.0
 74
0
  0
LTYPE
  5
50
100
AcDbSymbolTableRecord
100
AcDbLinetypeTableRecord
  2
DOTX2
 70
0
  3
Dot (2x) .  .  .  .  .  .  .  .  .  .  .  .  .  .
 72
65
 73
2
 40
12.6999999999999993
 49
0.0
 74
0
 49
-12.6999999999999993
 74
0
  0
LTYPE
  5
51
100
AcDbSymbolTableRecord
100
AcDbLinetypeTableRecord
  2
BORDER2
 70
0
  3
Border (.5x) __.__.__.__.__.__.__.__.__.__.__.
 72
65
 73
6
 40
22.2249999999999979
 49
6.3499999999999996
 74
0
 49
-3.1749999999999998
 74
0
 49
6.3499999999999996
 74
0
 49
-3.1749999999999998
 74
0
 49
0.0
 74
0
 49
-3.1749999999999998
 74
0
  0
LTYPE
  5
52
100
AcDbSymbolTableRecord
100
AcDbLinetypeTableRecord
  2
PHANTOMX2
 70
0
  3
Phantom (2x) ____________    ____    ____   _
 72
65
 73
6
 40
127.0000000000000142
 49
63.5
 74
0
 49
-12.6999999999999993
 74
0
 49
12.6999999999999993
 74
0
 49
-12.6999999999999993
 74
0
 49
12.6999999999999993
 74
0
 49
-12.6999999999999993
 74
0
  0
LTYPE
  5
53
100
AcDbSymbolTableRecord
100
AcDbLinetypeTableRecord
  2
BORDER
 70
0
  3
Border __ __ . __ __ . __ __ . __ __ . __ __ .
 72
65
 73
6
 40
44.4499999999999957
 49
12.6999999999999993
 74
0
 49
-6.3499999999999996
 74
0
 49
12.6999999999999993
 74
0
 49
-6.3499999999999996
 74
0
 49
0.0
 74
0
 49
-6.3499999999999996
 74
0
  0
LTYPE
  5
54
100
AcDbSymbolTableRecord
100
AcDbLinetypeTableRecord
  2
ACAD_ISO13W100
 70
0
  3
ISO double-dash double-dot __ __ . . __ __ . . _
 72
65
 73
8
 40
36.0
 49
12.0
 74
0
 49
-3.0
 74
0
 49
12.0
 74
0
 49
-3.0
 74
0
 49
0.0
 74
0
 49
-3.0
 74
0
 49
0.0
 74
0
 49
-3.0
 74
0
  0
LTYPE
  5
55
100
AcDbSymbolTableRecord
100
AcDbLinetypeTableRecord
  2
DASHED
 70
0
  3
Dashed __ __ __ __ __ __ __ __ __ __ __ __ __ _
 72
65
 73
2
 40
19.0499999999999972
 49
12.6999999999999993
 74
0
 49
-6.3499999999999996
 74
0
  0
LTYPE
  5
56
100
AcDbSymbolTableRecord
100
AcDbLinetypeTableRecord
  2
ACAD_ISO11W100
 70
0
  3
ISO double-dash dot __ __ . __ __ . __ __ . __ _
 72
65
 73
6
 40
33.0
 49
12.0
 74
0
 49
-3.0
 74
0
 49
12.0
 74
0
 49
-3.0
 74
0
 49
0.0
 74
0
 49
-3.0
 74
0
  0
ENDTAB
  0
TABLE
  2
LAYER
  5
2
100
AcDbSymbolTable
 70
2
  0
LAYER
  5
57
100
AcDbSymbolTableRecord
100
AcDbLayerTableRecord
  2
dimensions
 70
0
 62
1
420
16711680
  6
Continuous
370
25
390
F
  0
LAYER
  5
10
100
AcDbSymbolTableRecord
100
AcDbLayerTableRecord
  2
0
 70
0
 62
7
420
16777215
  6
Continuous
370
25
390
F
  0
ENDTAB
  0
TABLE
  2
STYLE
  5
3
100
AcDbSymbolTable
 70
1
  0
STYLE
  5
58
100
AcDbSymbolTableRecord
100
AcDbTextStyleTableRecord
  2
Standard
 70
0
 40
0.0
 41
1.0
 50
0.0
 71
0
 42
2.5
  3

  4

1001
ACAD
1000
txt
1071
0
  0
ENDTAB
  0
TABLE
  2
VIEW
  5
6
100
AcDbSymbolTable
 70
0
  0
ENDTAB
  0
TABLE
  2
UCS
  5
7
100
AcDbSymbolTable
 70
0
  0
ENDTAB
  0
TABLE
  2
APPID
  5
9
100
AcDbSymbolTable
 70
1
  0
APPID
  5
12
100
AcDbSymbolTableRecord
100
AcDbRegAppTableRecord
  2
ACAD
 70
0
  0
APPID
  5
59
100
AcDbSymbolTableRecord
100
AcDbRegAppTableRecord
  2
QCAD
 70
0
  0
ENDTAB
  0
TABLE
  2
DIMSTYLE
  5
A
100
AcDbSymbolTable
 70
1
100
AcDbDimStyleTable
 71
0
  0
DIMSTYLE
105
27
100
AcDbSymbolTableRecord
100
AcDbDimStyleTableRecord
  2
Standard
 41
2.5
 42
0.625
 43
3.75
 44
1.25
 70
0
 73
0
 74
0
 77
1
 78
8
140
2.5
141
2.5
143
0.03937007874016
147
0.625
171
3
172
1
271
2
272
2
274
3
278
44
283
0
284
8
340
58
  0
ENDTAB
  0
TABLE
  2
BLOCK_RECORD
  5
1
100
AcDbSymbolTable
 70
1
  0
BLOCK_RECORD
  5
1F
100
AcDbSymbolTableRecord
100
AcDbBlockTableRecord
  2
*Model_Space
340
22
  0
BLOCK_RECORD
  5
1B
100
AcDbSymbolTableRecord
100
AcDbBlockTableRecord
  2
*Paper_Space
340
1E
  0
BLOCK_RECORD
  5
23
100
AcDbSymbolTableRecord
100
AcDbBlockTableRecord
  2
*Paper_Space0
340
26
  0
ENDTAB
  0
ENDSEC
  0
SECTION
  2
BLOCKS
  0
BLOCK
  5
20
100
AcDbEntity
  8
0
100
AcDbBlockBegin
  2
*Model_Space
 70
0
 10
0.0
 20
0.0
 30
0.0
  3
*Model_Space
  1

  0
ENDBLK
  5
21
100
AcDbEntity
  8
0
100
AcDbBlockEnd
  0
BLOCK
  5
1C
100
AcDbEntity
 67
1
  8
0
100
AcDbBlockBegin
  2
*Paper_Space
 70
0
 10
0.0
 20
0.0
 30
0.0
  3
*Paper_Space
  1

  0
ENDBLK
  5
1D
100
AcDbEntity
 67
1
  8
0
100
AcDbBlockEnd
  0
BLOCK
  5
24
100
AcDbEntity
  8
0
100
AcDbBlockBegin
  2
*Paper_Space0
 70
0
 10
0.0
 20
0.0
 30
0.0
  3
*Paper_Space0
  1

  0
ENDBLK
  5
25
100
AcDbEntity
  8
0
100
AcDbBlockEnd
  0
ENDSEC
  0
SECTION
  2
ENTITIES
  0
LWPOLYLINE
  5
5A
100
AcDbEntity
  8
0
 62
7
420
0
370
-1
 48
1.0
  6
BYLAYER
100
AcDbPolyline
 90
10
 70
128
 10
341.3107390494484434
 20
1960.1632931420299428
 10
291.6408990494484783
 20
1874.1323631420300444
 10
765.316899049448466
 20
1600.6555211420300111
 10
765.316899049448466
 20
1052.4217931420300829
 10
864.6560590494484586
 20
1052.4217931420300829
 10
864.6560590494484586
 20
1599.4452591420299541
 10
1338.9366890494484323
 20
1873.2714331420299914
 10
1289.2668890494485368
 20
1959.3018431420300658
 10
816.0342190494485521
 20
1686.0813131420300124
 10
341.3107390494484434
 20
1960.1632931420299428
  0
LWPOLYLINE
  5
5B
100
AcDbEntity
  8
0
 62
7
420
0
370
-1
 48
1.0
  6
BYLAYER
100
AcDbPolyline
 90
10
 70
128
 10
-252.92205977990929
 20
1607.4573738368626437
 10
-302.5918997799092836
 20
1521.4264438368627452
 10
171.0841002200907042
 20
1247.9496018368627119
 10
171.0841002200907042
 20
699.7158738368627837
 10
270.4232602200906967
 20
699.7158738368627837
 10
270.4232602200906967
 20
1246.7393398368626549
 10
744.7038902200906705
 20
1520.5655138368626922
 10
695.0340902200907749
 20
1606.5959238368627666
 10
221.8014202200907903
 20
1333.3753938368627132
 10
-252.92205977990929
 20
1607.4573738368626437
  0
LINE
  5
5C
100
AcDbEntity
  8
0
 62
7
420
0
370
-1
 48
1.0
  6
BYLAYER
100
AcDbLine
 10
309.866789321339752
 20
1762.8890725529327028
 30
0.0
 11
409.1103043213397541
 21
1762.8890725529327028
 31
0.0
  0
ARC
  5
5D
100
AcDbEntity
  8
dimensions
 62
7
420
0
370
-1
 48
1.0
  6
BYLAYER
100
AcDbCircle
 10
104.1786636096885275
 20
1883.2876877808614609
 30
0.0
 40
5.7037113177416776
100
AcDbArc
 50
359.8742278481562948
 51
90.125772151839513
  0
LINE
  5
5E
100
AcDbEntity
  8
0
 62
7
420
0
370
-1
 48
1.0
  6
BYLAYER
100
AcDbLine
 10
103.8689494754296447
 20
650.6364158057244822
 30
0.0
 11
363.4707894754294557
 21
650.6364158057244822
 31
0.0
  0
LINE
  5
5F
100
AcDbEntity
  8
0
 62
7
420
0
370
-1
 48
1.0
  6
BYLAYER
100
AcDbLine
 10
465.5953134927142969
 20
1120.7599222251608353
 30
0.0
 11
470.3737453927142838
 21
1120.7599222251608353
 31
0.0
  0
LWPOLYLINE
  5
60
100
AcDbEntity
  8
0
 62
7
420
0
370
-1
 48
1.0
  6
BYLAYER
100
AcDbPolyline
 90
2
 70
128
 10
567.778803468830688
 20
1272.6892939346980711
 10
567.7793324688307166
 20
1213.1601079346978622
  0
DIMENSION
  5
61
100
AcDbEntity
  8
dimensions
 62
256
370
-1
 48
1.0
  6
BYLAYER
100
AcDbDimension
 10
282.5090763000077914
 20
1879.4046085411334843
 30
0.0
 11
305.7201975188459073
 21
1923.357571550890043
 31
0.0
 70
1
 71
8
 72
2
 74
0
 75
0
 41
1.0
 42
0.0
  1

  3
Standard
100
AcDbAlignedDimension
 13
291.6408990494485352
 23
1874.1323631420300444
 33
0.0
 14
341.3107390494485003
 24
1960.1632931420299428
 34
0.0
1001
ACAD
1000
DSTYLE
1002
{
1070
144
1040
1.0
1070
40
1040
1.0
1002
}
  0
DIMENSION
  5
62
100
AcDbEntity
  8
dimensions
 62
256
370
-1
 48
1.0
  6
BYLAYER
100
AcDbDimension
 10
-311.7237225293499705
 20
1526.6986892359661852
 30
0.0
 11
-288.5126013105118545
 21
1570.6516522457227438
 31
0.0
 70
1
 71
8
 72
2
 74
0
 75
0
 41
1.0
 42
0.0
  1

  3
Standard
100
AcDbAlignedDimension
 13
-302.5918997799092267
 23
1521.4264438368627452
 33
0.0
 14
-252.9220597799092616
 24
1607.4573738368626437
 34
0.0
1001
ACAD
1000
DSTYLE
1002
{
1070
144
1040
1.0
1070
40
1040
1.0
1002
}
  0
LINE
  5
63
100
AcDbEntity
  8
0
 62
7
420
0
370
-1
 48
1.0
  6
BYLAYER
100
AcDbLine
 10
409.1103043213397541
 20
1762.8890725529327028
 30
0.0
 11
409.1103043213397541
 21
1503.6455725529326628
 31
0.0
  0
LWPOLYLINE
  5
64
100
AcDbEntity
  8
dimensions
 62
7
420
0
370
-1
 48
1.0
  6
BYLAYER
100
AcDbPolyline
 90
2
 70
128
 10
109.8823611853941316
 20
1883.2751673565671808
 10
109.8823611853941316
 20
1825.2751723565670545
  0
LINE
  5
65
100
AcDbEntity
  8
0
 62
7
420
0
370
-1
 48
1.0
  6
BYLAYER
100
AcDbLine
 10
363.4707894754294557
 20
650.6364158057244822
 30
0.0
 11
363.4707894754294557
 21
106.5075658057244254
 31
0.0
  0
LINE
  5
66
100
AcDbEntity
  8
0
 62
7
420
0
370
-1
 48
1.0
  6
BYLAYER
100
AcDbLine
 10
470.3737453927142838
 20
1120.7599222251608353
 30
0.0
 11
470.3737453927142838
 21
860.9814822251607893
 31
0.0
  0
ARC
  5
67
100
AcDbEntity
  8
0
 62
7
420
0
370
-1
 48
1.0
  6
BYLAYER
100
AcDbCircle
 10
628.403974901298966
 20
470904.6634306955384091
 30
0.0
 40
469691.5072352729039267
100
AcDbArc
 50
269.9926046434691216
 51
270.0063806532365902
  0
DIMENSION
  5
68
100
AcDbEntity
  8
dimensions
 62
256
370
-1
 48
1.0
  6
BYLAYER
100
AcDbDimension
 10
344.778679669742246
 20
1966.1699369925274823
 30
0.0
 11
583.0779203137340119
 21
1830.7527442528146366
 31
0.0
 70
1
 71
8
 72
2
 74
0
 75
0
 41
1.0
 42
0.0
  1

  3
Standard
100
AcDbAlignedDimension
 13
341.3107390494485003
 23
1960.1632931420299428
 33
0.0
 14
816.0342190494486658
 24
1686.0813131420302398
 34
0.0
1001
ACAD
1000
DSTYLE
1002
{
1070
144
1040
1.0
1070
40
1040
1.0
1002
}
  0
DIMENSION
  5
69
100
AcDbEntity
  8
dimensions
 62
256
370
-1
 48
1.0
  6
BYLAYER
100
AcDbDimension
 10
-249.4541191596155443
 20
1613.4640176873601831
 30
0.0
 11
-11.1548785156237305
 21
1478.0468249476473375
 31
0.0
 70
1
 71
8
 72
2
 74
0
 75
0
 41
1.0
 42
0.0
  1

  3
Standard
100
AcDbAlignedDimension
 13
-252.9220597799092616
 23
1607.4573738368626437
 33
0.0
 14
221.801420220090904
 24
1333.3753938368629406
 34
0.0
1001
ACAD
1000
DSTYLE
1002
{
1070
144
1040
1.0
1070
40
1040
1.0
1002
}
  0
LINE
  5
6A
100
AcDbEntity
  8
0
 62
7
420
0
370
-1
 48
1.0
  6
BYLAYER
100
AcDbLine
 10
409.1103043213397541
 20
1503.6455725529326628
 30
0.0
 11
309.866789321339752
 21
1503.6455725529326628
 31
0.0
  0
ARC
  5
6B
100
AcDbEntity
  8
dimensions
 62
7
420
0
370
-1
 48
1.0
  6
BYLAYER
100
AcDbCircle
 10
104.1786650924419035
 20
1825.2626484539009653
 30
0.0
 40
5.7037098426284354
100
AcDbArc
 50
269.8742129208155802
 51
0.125807125924348
  0
LINE
  5
6C
100
AcDbEntity
  8
0
 62
7
420
0
370
-1
 48
1.0
  6
BYLAYER
100
AcDbLine
 10
363.4707894754294557
 20
106.5075658057244254
 30
0.0
 11
103.8689494754296447
 21
106.5075658057244254
 31
0.0
  0
LINE
  5
6D
100
AcDbEntity
  8
0
 62
7
420
0
370
-1
 48
1.0
  6
BYLAYER
100
AcDbLine
 10
470.3737453927142838
 20
860.9814822251607893
 30
0.0
 11
465.5953134927142969
 21
860.9814822251607893
 31
0.0
  0
ARC
  5
6E
100
AcDbEntity
  8
0
 62
7
420
0
370
-1
 48
1.0
  6
BYLAYER
100
AcDbCircle
 10
680.7085892396319196
 20
1219.7600201650084273
 30
0.0
 40
6.6009124845984175
100
AcDbArc
 50
270.0159037105524362
 51
359.9840615598583895
  0
DIMENSION
  5
6F
100
AcDbEntity
  8
dimensions
 62
256
370
-1
 48
1.0
  6
BYLAYER
100
AcDbDimension
 10
1297.6449744802148416
 20
1964.1389446707696607
 30
0.0
 11
1324.1036711345925596
 21
1922.0612413642245428
 31
0.0
 70
1
 71
8
 72
2
 74
0
 75
0
 41
1.0
 42
0.0
  1

  3
Standard
100
AcDbAlignedDimension
 13
1289.2668890494485368
 23
1959.3018431420305205
 33
0.0
 14
1338.936689049448205
 24
1873.271433142029764
 34
0.0
1001
ACAD
1000
DSTYLE
1002
{
1070
144
1040
1.0
1070
40
1040
1.0
1002
}
  0
DIMENSION
  5
70
100
AcDbEntity
  8
dimensions
 62
256
370
-1
 48
1.0
  6
BYLAYER
100
AcDbDimension
 10
703.4121756508570797
 20
1611.4330253656023615
 30
0.0
 11
729.8708723052347978
 21
1569.3553220590572437
 31
0.0
 70
1
 71
8
 72
2
 74
0
 75
0
 41
1.0
 42
0.0
  1

  3
Standard
100
AcDbAlignedDimension
 13
695.0340902200907749
 23
1606.5959238368632214
 33
0.0
 14
744.7038902200904431
 24
1520.5655138368624648
 34
0.0
1001
ACAD
1000
DSTYLE
1002
{
1070
144
1040
1.0
1070
40
1040
1.0
1002
}
  0
LINE
  5
71
100
AcDbEntity
  8
0
 62
7
420
0
370
-1
 48
1.0
  6
BYLAYER
100
AcDbLine
 10
309.866789321339752
 20
1503.6455725529326628
 30
0.0
 11
309.866789321339752
 21
1762.8890725529327028
 31
0.0
  0
ARC
  5
72
100
AcDbEntity
  8
dimensions
 62
7
420
0
370
-1
 48
1.0
  6
BYLAYER
100
AcDbCircle
 10
104.1536220623530369
 20
1825.262648240098315
 30
0.0
 40
5.7037096271050931
100
AcDbArc
 50
179.8741907215923561
 51
270.1257792082942046
  0
LINE
  5
73
100
AcDbEntity
  8
0
 62
7
420
0
370
-1
 48
1.0
  6
BYLAYER
100
AcDbLine
 10
103.8689494754296447
 20
106.5075658057244254
 30
0.0
 11
103.8689494754296447
 21
650.6364158057244822
 31
0.0
  0
LINE
  5
74
100
AcDbEntity
  8
0
 62
7
420
0
370
-1
 48
1.0
  6
BYLAYER
100
AcDbLine
 10
465.5953134927142969
 20
860.9814822251607893
 30
0.0
 11
465.5953134927142969
 21
1120.7599222251608353
 31
0.0
  0
ARC
  5
75
100
AcDbEntity
  8
0
 62
7
420
0
370
-1
 48
1.0
  6
BYLAYER
100
AcDbCircle
 10
-109073.7500086170621216
 20
1244.6880313901651789
 30
0.0
 40
109761.0623412233107956
100
AcDbArc
 50
359.9869865048428892
 51
0.0104658365598936
  0
DIMENSION
  5
76
100
AcDbEntity
  8
dimensions
 62
256
370
-1
 48
1.0
  6
BYLAYER
100
AcDbDimension
 10
765.3168990494483523
 20
1039.1057931420298246
 30
0.0
 11
814.9864790494482349
 21
1040.980793142030052
 31
0.0
 70
1
 71
8
 72
2
 74
0
 75
0
 41
1.0
 42
0.0
  1

  3
Standard
100
AcDbAlignedDimension
 13
765.3168990494482387
 23
1052.4217931420296281
 33
0.0
 14
864.6560590494483449
 24
1052.4217931420298555
 34
0.0
1001
ACAD
1000
DSTYLE
1002
{
1070
144
1040
1.0
1070
40
1040
1.0
1002
}
  0
DIMENSION
  5
77
100
AcDbEntity
  8
dimensions
 62
256
370
-1
 48
1.0
  6
BYLAYER
100
AcDbDimension
 10
171.0841002200905905
 20
686.3998738368625254
 30
0.0
 11
220.7536802200905299
 21
688.2748738368625254
 31
0.0
 70
1
 71
8
 72
2
 74
0
 75
0
 41
1.0
 42
0.0
  1

  3
Standard
100
AcDbAlignedDimension
 13
171.0841002200904768
 23
699.715873836862329
 33
0.0
 14
270.4232602200905831
 24
699.7158738368624427
 34
0.0
1001
ACAD
1000
DSTYLE
1002
{
1070
144
1040
1.0
1070
40
1040
1.0
1002
}
  0
LINE
  5
78
100
AcDbEntity
  8
0
 62
7
420
0
370
-1
 48
1.0
  6
BYLAYER
100
AcDbLine
 10
111.3797643213397777
 20
1762.8890735529325866
 30
0.0
 11
210.6232793213397656
 21
1762.8890735529325866
 31
0.0
  0
LWPOLYLINE
  5
79
100
AcDbEntity
  8
dimensions
 62
7
420
0
370
-1
 48
1.0
  6
BYLAYER
100
AcDbPolyline
 90
2
 70
128
 10
98.4499261853941334
 20
1825.2751723565670545
 10
98.4499261853941334
 20
1883.2751673565671808
  0
LINE
  5
7A
100
AcDbEntity
  8
0
 62
7
420
0
370
-1
 48
1.0
  6
BYLAYER
100
AcDbLine
 10
363.8689644754297206
 20
650.6364158057244822
 30
0.0
 11
623.4708044754295315
 21
650.6364158057244822
 31
0.0
  0
LINE
  5
7B
100
AcDbEntity
  8
0
 62
7
420
0
370
-1
 48
1.0
  6
BYLAYER
100
AcDbLine
 10
470.3737404927143189
 20
1120.7599222251608353
 30
0.0
 11
475.1521723927143057
 21
1120.7599222251608353
 31
0.0
  0
ARC
  5
7C
100
AcDbEntity
  8
0
 62
7
420
0
370
-1
 48
1.0
  6
BYLAYER
100
AcDbCircle
 10
679.3567019650541852
 20
1264.7344859507006731
 30
0.0
 40
7.9538000194046479
100
AcDbArc
 50
0.0206309184099699
 51
90.0054062543819242
  0
DIMENSION
  5
7D
100
AcDbEntity
  8
dimensions
 62
256
370
-1
 48
1.0
  6
BYLAYER
100
AcDbDimension
 10
870.9654890494484789
 20
1599.4452591420313183
 30
0.0
 11
869.0904890494483652
 21
1325.9335261420292227
 31
0.0
 70
1
 71
8
 72
2
 74
0
 75
0
 41
1.0
 42
0.0
  1

  3
Standard
100
AcDbAlignedDimension
 13
864.6560590494485723
 23
1599.4452591420285898
 33
0.0
 14
864.6560590494483449
 24
1052.4217931420298555
 34
0.0
1001
ACAD
1000
DSTYLE
1002
{
1070
144
1040
1.0
1070
40
1040
1.0
1002
}
  0
DIMENSION
  5
7E
100
AcDbEntity
  8
dimensions
 62
256
370
-1
 48
1.0
  6
BYLAYER
100
AcDbDimension
 10
276.732690220090717
 20
1246.7393398368640192
 30
0.0
 11
274.8576902200906034
 21
973.2276068368619235
 31
0.0
 70
1
 71
8
 72
2
 74
0
 75
0
 41
1.0
 42
0.0
  1

  3
Standard
100
AcDbAlignedDimension
 13
270.4232602200908104
 23
1246.7393398368612907
 33
0.0
 14
270.4232602200905831
 24
699.7158738368624427
 34
0.0
1001
ACAD
1000
DSTYLE
1002
{
1070
144
1040
1.0
1070
40
1040
1.0
1002
}
  0
LINE
  5
7F
100
AcDbEntity
  8
0
 62
7
420
0
370
-1
 48
1.0
  6
BYLAYER
100
AcDbLine
 10
210.6232793213397656
 20
1762.8890735529325866
 30
0.0
 11
210.6232793213397656
 21
1503.645573552932774
 31
0.0
  0
ARC
  5
80
100
AcDbEntity
  8
dimensions
 62
7
420
0
370
-1
 48
1.0
  6
BYLAYER
100
AcDbCircle
 10
104.1536235451066261
 20
1883.2876879946643385
 30
0.0
 40
5.7037111022184233
100
AcDbArc
 50
89.8742357190513985
 51
180.12577430431989
  0
LINE
  5
81
100
AcDbEntity
  8
0
 62
7
420
0
370
-1
 48
1.0
  6
BYLAYER
100
AcDbLine
 10
623.4708044754295315
 20
650.6364158057244822
 30
0.0
 11
623.4708044754295315
 21
106.5075658057244254
 31
0.0
  0
LINE
  5
82
100
AcDbEntity
  8
0
 62
7
420
0
370
-1
 48
1.0
  6
BYLAYER
100
AcDbLine
 10
475.1521723927143057
 20
1120.7599222251608353
 30
0.0
 11
475.1521723927143057
 21
860.9814822251607893
 31
0.0
  0
ARC
  5
83
100
AcDbEntity
  8
0
 62
7
420
0
370
-1
 48
1.0
  6
BYLAYER
100
AcDbCircle
 10
627.5596773724851118
 20
406228.0471845607389696
 30
0.0
 40
404955.3622111565782689
100
AcDbArc
 50
269.991541800708319
 51
270.0073284815692318
  0
DIMENSION
  5
84
100
AcDbEntity
  8
dimensions
 62
256
370
-1
 48
1.0
  6
BYLAYER
100
AcDbDimension
 10
859.28752979036733
 20
1608.7438203495878497
 30
0.0
 11
1095.4903444704261801
 21
1747.2807047969663472
 31
0.0
 70
1
 71
8
 72
2
 74
0
 75
0
 41
1.0
 42
0.0
  1

  3
Standard
100
AcDbAlignedDimension
 13
864.6560590494485723
 23
1599.4452591420285898
 33
0.0
 14
1338.936689049448205
 24
1873.271433142029764
 34
0.0
1001
ACAD
1000
DSTYLE
1002
{
1070
144
1040
1.0
1070
40
1040
1.0
1002
}
  0
DIMENSION
  5
85
100
AcDbEntity
  8
dimensions
 62
256
370
-1
 48
1.0
  6
BYLAYER
100
AcDbDimension
 10
265.0547309610095681
 20
1256.0379010444205505
 30
0.0
 11
501.2575456410684751
 21
1394.574785491799048
 31
0.0
 70
1
 71
8
 72
2
 74
0
 75
0
 41
1.0
 42
0.0
  1

  3
Standard
100
AcDbAlignedDimension
 13
270.4232602200908104
 23
1246.7393398368612907
 33
0.0
 14
744.7038902200904431
 24
1520.5655138368624648
 34
0.0
1001
ACAD
1000
DSTYLE
1002
{
1070
144
1040
1.0
1070
40
1040
1.0
1002
}
  0
LINE
  5
86
100
AcDbEntity
  8
0
 62
7
420
0
370
-1
 48
1.0
  6
BYLAYER
100
AcDbLine
 10
210.6232793213397656
 20
1503.645573552932774
 30
0.0
 11
111.3797643213397777
 21
1503.645573552932774
 31
0.0
  0
CIRCLE
  5
87
100
AcDbEntity
  8
dimensions
 62
256
370
-1
 48
1.0
  6
BYLAYER
100
AcDbCircle
 10
104.2432001929213641
 20
1883.1824910290501975
 30
0.0
 40
1.5
  0
LINE
  5
88
100
AcDbEntity
  8
0
 62
7
420
0
370
-1
 48
1.0
  6
BYLAYER
100
AcDbLine
 10
623.4708044754295315
 20
106.5075658057244254
 30
0.0
 11
363.8689644754297206
 21
106.5075658057244254
 31
0.0
  0
LINE
  5
89
100
AcDbEntity
  8
0
 62
7
420
0
370
-1
 48
1.0
  6
BYLAYER
100
AcDbLine
 10
475.1521723927143057
 20
860.9814822251607893
 30
0.0
 11
470.3737404927143189
 21
860.9814822251607893
 31
0.0
  0
LWPOLYLINE
  5
8A
100
AcDbEntity
  8
0
 62
7
420
0
370
-1
 48
1.0
  6
BYLAYER
100
AcDbPolyline
 90
2
 70
128
 10
567.7787794688307486
 20
1272.6893859346980662
 10
567.778803468830688
 20
1272.6892939346980711
  0
LINE
  5
8B
100
AcDbEntity
  8
0
 62
7
420
0
370
-1
 48
1.0
  6
BYLAYER
100
AcDbLine
 10
111.3797643213397777
 20
1503.645573552932774
 30
0.0
 11
111.3797643213397777
 21
1762.8890735529325866
 31
0.0
  0
CIRCLE
  5
8C
100
AcDbEntity
  8
dimensions
 62
256
370
-1
 48
1.0
  6
BYLAYER
100
AcDbCircle
 10
104.1786650924419035
 20
1825.2626484539009653
 30
0.0
 40
1.5
  0
LINE
  5
8D
100
AcDbEntity
  8
0
 62
7
420
0
370
-1
 48
1.0
  6
BYLAYER
100
AcDbLine
 10
363.8689644754297206
 20
106.5075658057244254
 30
0.0
 11
363.8689644754297206
 21
650.6364158057244822
 31
0.0
  0
LINE
  5
8E
100
AcDbEntity
  8
0
 62
7
420
0
370
-1
 48
1.0
  6
BYLAYER
100
AcDbLine
 10
470.3737404927143189
 20
860.9814822251607893
 30
0.0
 11
470.3737404927143189
 21
1120.7599222251608353
 31
0.0
  0
ARC
  5
8F
100
AcDbEntity
  8
0
 62
7
420
0
370
-1
 48
1.0
  6
BYLAYER
100
AcDbCircle
 10
574.6691523347592465
 20
1263.6762198006265407
 30
0.0
 40
1.5773548652721276
100
AcDbArc
 50
359.8753772552367423
 51
90.1246227447633288
  0
CIRCLE
  5
90
100
AcDbEntity
  8
0
 62
7
420
0
370
-1
 48
1.0
  6
BYLAYER
100
AcDbCircle
 10
161.0015343213397614
 20
1523.4893035529325971
 30
0.0
 40
1.3321680999999899
  0
DIMENSION
  5
91
100
AcDbEntity
  8
dimensions
 62
256
370
-1
 48
1.0
  6
BYLAYER
100
AcDbDimension
 10
98.449926185394105
 20
1895.1267226943755304
 30
0.0
 11
104.1661436853941041
 21
1897.0017226943755304
 31
0.0
 70
0
 71
8
 72
2
 74
0
 75
0
 41
1.0
 42
0.0
  1

  3
Standard
100
AcDbAlignedDimension
 13
98.449926185394105
 23
1883.2751673565683177
 33
0.0
 14
109.8823611853941031
 24
1883.2751673565671808
 34
0.0
 50
0.0
100
AcDbRotatedDimension
1001
ACAD
1000
DSTYLE
1002
{
1070
144
1040
1.0
1070
40
1040
1.0
1002
}
  0
LINE
  5
92
100
AcDbEntity
  8
0
 62
7
420
0
370
-1
 48
1.0
  6
BYLAYER
100
AcDbLine
 10
623.4708044754295315
 20
650.6364158057244822
 30
0.0
 11
883.0726444754297972
 21
650.6364158057244822
 31
0.0
  0
LINE
  5
93
100
AcDbEntity
  8
0
 62
7
420
0
370
-1
 48
1.0
  6
BYLAYER
100
AcDbLine
 10
475.1521754927142638
 20
1120.7599222251608353
 30
0.0
 11
479.9306073927143075
 21
1120.7599222251608353
 31
0.0
  0
LWPOLYLINE
  5
94
100
AcDbEntity
  8
0
 62
7
420
0
370
-1
 48
1.0
  6
BYLAYER
100
AcDbPolyline
 90
2
 70
128
 10
576.2465034688307242
 20
1263.6727889346980191
 10
576.2465034688307242
 20
1222.1724809346978873
  0
CIRCLE
  5
95
100
AcDbEntity
  8
0
 62
7
420
0
370
-1
 48
1.0
  6
BYLAYER
100
AcDbCircle
 10
161.0015343213397614
 20
1622.93739355293269
 30
0.0
 40
1.3321680999999899
  0
DIMENSION
  5
96
100
AcDbEntity
  8
dimensions
 62
256
370
-1
 48
1.0
  6
BYLAYER
100
AcDbDimension
 10
88.4041097702446166
 20
1888.9913853565672071
 30
0.0
 11
86.5291097702446166
 21
1854.2751688565672339
 31
0.0
 70
0
 71
8
 72
2
 74
0
 75
0
 41
1.0
 42
0.0
  1

  3
Standard
100
AcDbAlignedDimension
 13
104.1661431853908653
 23
1888.9913853565672071
 33
0.0
 14
104.1661431853878241
 24
1819.5589523565672607
 34
0.0
 50
90.0
100
AcDbRotatedDimension
1001
ACAD
1000
DSTYLE
1002
{
1070
144
1040
1.0
1070
40
1040
1.0
1002
}
  0
LINE
  5
97
100
AcDbEntity
  8
0
 62
7
420
0
370
-1
 48
1.0
  6
BYLAYER
100
AcDbLine
 10
883.0726444754297972
 20
650.6364158057244822
 30
0.0
 11
883.0726444754297972
 21
106.5075658057244254
 31
0.0
  0
LINE
  5
98
100
AcDbEntity
  8
0
 62
7
420
0
370
-1
 48
1.0
  6
BYLAYER
100
AcDbLine
 10
479.9306073927143075
 20
1120.7599222251608353
 30
0.0
 11
479.9306073927143075
 21
860.9814822251607893
 31
0.0
  0
ARC
  5
99
100
AcDbEntity
  8
0
 62
7
420
0
370
-1
 48
1.0
  6
BYLAYER
100
AcDbCircle
 10
574.6691516979414018
 20
1222.169050705587324
 30
0.0
 40
1.5773555007033795
100
AcDbArc
 50
269.8754004372310078
 51
0.1245995627688698
  0
LINE
  5
9A
100
AcDbEntity
  8
0
 62
7
420
0
370
-1
 48
1.0
  6
BYLAYER
100
AcDbLine
 10
210.623279321339794
 20
1762.8890735529325866
 30
0.0
 11
309.8667943213397962
 21
1762.8890735529325866
 31
0.0
  0
DIMENSION
  5
9B
100
AcDbEntity
  8
dimensions
 62
256
370
-1
 48
1.0
  6
BYLAYER
100
AcDbDimension
 10
116.9578091853940975
 20
1884.6824910290501975
 30
0.0
 11
115.0828091853940975
 21
1883.1824910290501975
 31
0.0
 70
0
 71
8
 72
2
 74
0
 75
0
 41
1.0
 42
0.0
  1

  3
Standard
100
AcDbAlignedDimension
 13
104.2432001929213357
 23
1884.6824910290501975
 33
0.0
 14
104.2432001929213072
 24
1881.6824910290501975
 34
0.0
 50
90.0
100
AcDbRotatedDimension
1001
ACAD
1000
DSTYLE
1002
{
1070
144
1040
1.0
1070
40
1040
1.0
1002
}
  0
LINE
  5
9C
100
AcDbEntity
  8
0
 62
7
420
0
370
-1
 48
1.0
  6
BYLAYER
100
AcDbLine
 10
883.0726444754297972
 20
106.5075658057244254
 30
0.0
 11
623.4708044754295315
 21
106.5075658057244254
 31
0.0
  0
LINE
  5
9D
100
AcDbEntity
  8
0
 62
7
420
0
370
-1
 48
1.0
  6
BYLAYER
100
AcDbLine
 10
479.9306073927143075
 20
860.9814822251607893
 30
0.0
 11
475.1521754927142638
 21
860.9814822251607893
 31
0.0
  0
ARC
  5
9E
100
AcDbEntity
  8
0
 62
7
420
0
370
-1
 48
1.0
  6
BYLAYER
100
AcDbCircle
 10
574.662291239720048
 20
1222.169050705587324
 30
0.0
 40
1.5773555007034115
100
AcDbArc
 50
179.8754004372311215
 51
270.1245995627684238
  0
LINE
  5
9F
100
AcDbEntity
  8
0
 62
7
420
0
370
-1
 48
1.0
  6
BYLAYER
100
AcDbLine
 10
309.8667943213397962
 20
1762.8890735529325866
 30
0.0
 11
309.8667943213397962
 21
1503.645573552932774
 31
0.0
  0
LINE
  5
A0
100
AcDbEntity
  8
0
 62
7
420
0
370
-1
 48
1.0
  6
BYLAYER
100
AcDbLine
 10
623.4708044754295315
 20
106.5075658057244254
 30
0.0
 11
623.4708044754295315
 21
650.6364158057244822
 31
0.0
  0
LINE
  5
A1
100
AcDbEntity
  8
0
 62
7
420
0
370
-1
 48
1.0
  6
BYLAYER
100
AcDbLine
 10
475.1521754927142638
 20
860.9814822251607893
 30
0.0
 11
475.1521754927142638
 21
1120.7599222251608353
 31
0.0
  0
LWPOLYLINE
  5
A2
100
AcDbEntity
  8
0
 62
7
420
0
370
-1
 48
1.0
  6
BYLAYER
100
AcDbPolyline
 90
2
 70
128
 10
573.0849394688307257
 20
1222.1724809346978873
 10
573.0849394688307257
 20
1263.6727889346980191
  0
LINE
  5
A3
100
AcDbEntity
  8
0
 62
7
420
0
370
-1
 48
1.0
  6
BYLAYER
100
AcDbLine
 10
309.8667943213397962
 20
1503.645573552932774
 30
0.0
 11
210.623279321339794
 21
1503.645573552932774
 31
0.0
  0
LINE
  5
A4
100
AcDbEntity
  8
0
 62
7
420
0
370
-1
 48
1.0
  6
BYLAYER
100
AcDbLine
 10
479.9306024927142857
 20
1120.7599222251608353
 30
0.0
 11
484.7090343927142726
 21
1120.7599222251608353
 31
0.0
  0
ARC
  5
A5
100
AcDbEntity
  8
0
 62
7
420
0
370
-1
 48
1.0
  6
BYLAYER
100
AcDbCircle
 10
574.6622906029022033
 20
1263.6762198006265407
 30
0.0
 40
1.5773548652721312
100
AcDbArc
 50
89.8753772552365291
 51
180.1246227447632577
  0
LINE
  5
A6
100
AcDbEntity
  8
0
 62
7
420
0
370
-1
 48
1.0
  6
BYLAYER
100
AcDbLine
 10
210.623279321339794
 20
1503.645573552932774
 30
0.0
 11
210.623279321339794
 21
1762.8890735529325866
 31
0.0
  0
LINE
  5
A7
100
AcDbEntity
  8
0
 62
7
420
0
370
-1
 48
1.0
  6
BYLAYER
100
AcDbLine
 10
484.7090343927142726
 20
1120.7599222251608353
 30
0.0
 11
484.7090343927142726
 21
860.9814822251607893
 31
0.0
  0
LWPOLYLINE
  5
A8
100
AcDbEntity
  8
0
 62
7
420
0
370
-1
 48
1.0
  6
BYLAYER
100
AcDbPolyline
 90
2
 70
128
 10
574.6657214688307249
 20
1265.2535709346980184
 10
574.6657214688307249
 20
1265.2535709346980184
  0
CIRCLE
  5
A9
100
AcDbEntity
  8
0
 62
7
420
0
370
-1
 48
1.0
  6
BYLAYER
100
AcDbCircle
 10
260.2450493213397635
 20
1523.4893035529325971
 30
0.0
 40
1.3321680999999899
  0
LINE
  5
AA
100
AcDbEntity
  8
0
 62
7
420
0
370
-1
 48
1.0
  6
BYLAYER
100
AcDbLine
 10
484.7090343927142726
 20
860.9814822251607893
 30
0.0
 11
479.9306024927142857
 21
860.9814822251607893
 31
0.0
  0
DIMENSION
  5
AB
100
AcDbEntity
  8
dimensions
 62
256
370
-1
 48
1.0
  6
BYLAYER
100
AcDbDimension
 10
567.7787794688307486
 20
1282.1828524897491661
 30
0.0
 11
627.5446404688307211
 21
1284.0578524897491661
 31
0.0
 70
0
 71
8
 72
2
 74
0
 75
0
 41
1.0
 42
0.0
  1

  3
Standard
100
AcDbAlignedDimension
 13
567.7787794688306349
 23
1272.6893859346978388
 33
0.0
 14
687.3105014688308074
 24
1264.737349934698841
 34
0.0
 50
0.0
100
AcDbRotatedDimension
1001
ACAD
1000
DSTYLE
1002
{
1070
144
1040
1.0
1070
40
1040
1.0
1002
}
  0
CIRCLE
  5
AC
100
AcDbEntity
  8
0
 62
7
420
0
370
-1
 48
1.0
  6
BYLAYER
100
AcDbCircle
 10
260.2450493213397635
 20
1622.93739355293269
 30
0.0
 40
1.3321680999999899
  0
LINE
  5
AD
100
AcDbEntity
  8
0
 62
7
420
0
370
-1
 48
1.0
  6
BYLAYER
100
AcDbLine
 10
883.0726044754294435
 20
106.5075658057244254
 30
0.0
 11
883.0726044754294435
 21
650.6364158057244822
 31
0.0
  0
LINE
  5
AE
100
AcDbEntity
  8
0
 62
7
420
0
370
-1
 48
1.0
  6
BYLAYER
100
AcDbLine
 10
479.9306024927142857
 20
860.9814822251607893
 30
0.0
 11
479.9306024927142857
 21
1120.7599222251608353
 31
0.0
  0
DIMENSION
  5
AF
100
AcDbEntity
  8
dimensions
 62
256
370
-1
 48
1.0
  6
BYLAYER
100
AcDbDimension
 10
573.0849394688307257
 20
1268.0581711075597013
 30
0.0
 11
581.1770590243862671
 21
1269.9331711075597013
 31
0.0
 70
0
 71
8
 72
2
 74
0
 75
0
 41
1.0
 42
0.0
  1

  3
Standard
100
AcDbAlignedDimension
 13
573.0849394688307257
 23
1263.672788934674827
 33
0.0
 14
576.2465034688307242
 24
1263.6727889346980191
 34
0.0
 50
0.0
100
AcDbRotatedDimension
1001
ACAD
1000
DSTYLE
1002
{
1070
144
1040
1.0
1070
40
1040
1.0
1002
}
  0
DIMENSION
  5
B0
100
AcDbEntity
  8
dimensions
 62
256
370
-1
 48
1.0
  6
BYLAYER
100
AcDbDimension
 10
111.3797643213397919
 20
1772.1197571825148316
 30
0.0
 11
161.0015218213397645
 21
1773.9947571825148316
 31
0.0
 70
0
 71
8
 72
2
 74
0
 75
0
 41
1.0
 42
0.0
  1

  3
Standard
100
AcDbAlignedDimension
 13
111.3797643213397492
 23
1762.8890735529325866
 33
0.0
 14
210.623279321339794
 24
1762.889073552932814
 34
0.0
 50
0.0
100
AcDbRotatedDimension
1001
ACAD
1000
DSTYLE
1002
{
1070
144
1040
1.0
1070
40
1040
1.0
1002
}
  0
LINE
  5
B1
100
AcDbEntity
  8
0
 62
7
420
0
370
-1
 48
1.0
  6
BYLAYER
100
AcDbLine
 10
103.8689494754296447
 20
106.1094188057245447
 30
0.0
 11
363.4707894754294557
 21
106.1094188057245447
 31
0.0
  0
LINE
  5
B2
100
AcDbEntity
  8
0
 62
7
420
0
370
-1
 48
1.0
  6
BYLAYER
100
AcDbLine
 10
484.7090374927142875
 20
1120.7599142251606281
 30
0.0
 11
489.4874693927142744
 21
1120.7599142251606281
 31
0.0
  0
DIMENSION
  5
B3
100
AcDbEntity
  8
dimensions
 62
256
370
-1
 48
1.0
  6
BYLAYER
100
AcDbDimension
 10
555.1315343240935363
 20
1272.6893859346980662
 30
0.0
 11
553.2565343240935363
 21
1242.9247469346523758
 31
0.0
 70
0
 71
8
 72
2
 74
0
 75
0
 41
1.0
 42
0.0
  1

  3
Standard
100
AcDbAlignedDimension
 13
567.7787794688306349
 23
1272.6893859346978388
 33
0.0
 14
567.7793324688307166
 24
1213.1601079346069127
 34
0.0
 50
90.0
100
AcDbRotatedDimension
1001
ACAD
1000
DSTYLE
1002
{
1070
144
1040
1.0
1070
40
1040
1.0
1002
}
  0
DIMENSION
  5
B4
100
AcDbEntity
  8
dimensions
 62
256
370
-1
 48
1.0
  6
BYLAYER
100
AcDbDimension
 10
102.9501293213397588
 20
1762.8890735529325866
 30
0.0
 11
101.0751293213397588
 21
1633.267323552932794
 31
0.0
 70
0
 71
8
 72
2
 74
0
 75
0
 41
1.0
 42
0.0
  1

  3
Standard
100
AcDbAlignedDimension
 13
111.3797643213397492
 23
1762.8890735529325866
 33
0.0
 14
111.3797643213397066
 24
1503.645573552932774
 34
0.0
 50
90.0
100
AcDbRotatedDimension
1001
ACAD
1000
DSTYLE
1002
{
1070
144
1040
1.0
1070
40
1040
1.0
1002
}
  0
LINE
  5
B5
100
AcDbEntity
  8
0
 62
7
420
0
370
-1
 48
1.0
  6
BYLAYER
100
AcDbLine
 10
363.4707894754294557
 20
106.1094188057245447
 30
0.0
 11
363.4707894754294557
 21
-438.0194311942755121
 31
0.0
  0
LINE
  5
B6
100
AcDbEntity
  8
0
 62
7
420
0
370
-1
 48
1.0
  6
BYLAYER
100
AcDbLine
 10
489.4874693927142744
 20
1120.7599142251606281
 30
0.0
 11
489.4874693927142744
 21
860.9814742251608095
 31
0.0
  0
DIMENSION
  5
B7
100
AcDbEntity
  8
dimensions
 62
256
370
-1
 48
1.0
  6
BYLAYER
100
AcDbDimension
 10
581.9814671176833372
 20
1265.2535709346980184
 30
0.0
 11
580.1064671176833372
 21
1242.9226349346979532
 31
0.0
 70
0
 71
8
 72
2
 74
0
 75
0
 41
1.0
 42
0.0
  1

  3
Standard
100
AcDbAlignedDimension
 13
574.6657214688315207
 23
1265.2535709346980184
 33
0.0
 14
574.6657214688380009
 24
1220.591698934697888
 34
0.0
 50
90.0
100
AcDbRotatedDimension
1001
ACAD
1000
DSTYLE
1002
{
1070
144
1040
1.0
1070
40
1040
1.0
1002
}
  0
DIMENSION
  5
B8
100
AcDbEntity
  8
dimensions
 62
256
370
-1
 48
1.0
  6
BYLAYER
100
AcDbDimension
 10
162.6498600612528662
 20
1630.1390725529327028
 30
0.0
 11
154.2519657127760411
 21
1632.0140725529327028
 31
0.0
 70
0
 71
8
 72
2
 74
0
 75
0
 41
1.0
 42
0.0
  1

  3
Standard
100
AcDbAlignedDimension
 13
162.649860061252781
 23
1622.9967947697516593
 33
0.0
 14
159.4602990461093555
 24
1623.3525770838914468
 34
0.0
 50
0.0
100
AcDbRotatedDimension
1001
ACAD
1000
DSTYLE
1002
{
1070
144
1040
1.0
1070
40
1040
1.0
1002
}
  0
LINE
  5
B9
100
AcDbEntity
  8
0
 62
7
420
0
370
-1
 48
1.0
  6
BYLAYER
100
AcDbLine
 10
363.4707894754294557
 20
-438.0194311942755121
 30
0.0
 11
103.8689494754296447
 21
-438.0194311942755121
 31
0.0
  0
LINE
  5
BA
100
AcDbEntity
  8
0
 62
7
420
0
370
-1
 48
1.0
  6
BYLAYER
100
AcDbLine
 10
489.4874693927142744
 20
860.9814742251608095
 30
0.0
 11
484.7090374927142875
 21
860.9814742251608095
 31
0.0
  0
LINE
  5
BB
100
AcDbEntity
  8
0
 62
7
420
0
370
-1
 48
1.0
  6
BYLAYER
100
AcDbLine
 10
103.8689494754296447
 20
-438.0194311942755121
 30
0.0
 11
103.8689494754296447
 21
106.1094188057245447
 31
0.0
  0
LINE
  5
BC
100
AcDbEntity
  8
0
 62
7
420
0
370
-1
 48
1.0
  6
BYLAYER
100
AcDbLine
 10
484.7090374927142875
 20
860.9814742251608095
 30
0.0
 11
484.7090374927142875
 21
1120.7599142251606281
 31
0.0
  0
LINE
  5
BD
100
AcDbEntity
  8
0
 62
7
420
0
370
-1
 48
1.0
  6
BYLAYER
100
AcDbLine
 10
363.4708044754295315
 20
106.1094188057245447
 30
0.0
 11
623.0726444754295699
 21
106.1094188057245447
 31
0.0
  0
LINE
  5
BE
100
AcDbEntity
  8
0
 62
7
420
0
370
-1
 48
1.0
  6
BYLAYER
100
AcDbLine
 10
489.4874714927142918
 20
1120.7599142251606281
 30
0.0
 11
494.2659033927142787
 21
1120.7599142251606281
 31
0.0
  0
LINE
  5
BF
100
AcDbEntity
  8
0
 62
7
420
0
370
-1
 48
1.0
  6
BYLAYER
100
AcDbLine
 10
623.0726444754295699
 20
106.1094188057245447
 30
0.0
 11
623.0726444754295699
 21
-438.0194311942755121
 31
0.0
  0
LINE
  5
C0
100
AcDbEntity
  8
0
 62
7
420
0
370
-1
 48
1.0
  6
BYLAYER
100
AcDbLine
 10
494.2659033927142787
 20
1120.7599142251606281
 30
0.0
 11
494.2659033927142787
 21
860.9814742251608095
 31
0.0
  0
LINE
  5
C1
100
AcDbEntity
  8
0
 62
7
420
0
370
-1
 48
1.0
  6
BYLAYER
100
AcDbLine
 10
623.0726444754295699
 20
-438.0194311942755121
 30
0.0
 11
363.4708044754295315
 21
-438.0194311942755121
 31
0.0
  0
LINE
  5
C2
100
AcDbEntity
  8
0
 62
7
420
0
370
-1
 48
1.0
  6
BYLAYER
100
AcDbLine
 10
494.2659033927142787
 20
860.9814742251608095
 30
0.0
 11
489.4874714927142918
 21
860.9814742251608095
 31
0.0
  0
LINE
  5
C3
100
AcDbEntity
  8
0
 62
7
420
0
370
-1
 48
1.0
  6
BYLAYER
100
AcDbLine
 10
363.4708044754295315
 20
-438.0194311942755121
 30
0.0
 11
363.4708044754295315
 21
106.1094188057245447
 31
0.0
  0
LINE
  5
C4
100
AcDbEntity
  8
0
 62
7
420
0
370
-1
 48
1.0
  6
BYLAYER
100
AcDbLine
 10
489.4874714927142918
 20
860.9814742251608095
 30
0.0
 11
489.4874714927142918
 21
1120.7599142251606281
 31
0.0
  0
LINE
  5
C5
100
AcDbEntity
  8
0
 62
7
420
0
370
-1
 48
1.0
  6
BYLAYER
100
AcDbLine
 10
623.0726044754294435
 20
106.1094188057245447
 30
0.0
 11
882.6744444754292545
 21
106.1094188057245447
 31
0.0
  0
LINE
  5
C6
100
AcDbEntity
  8
0
 62
7
420
0
370
-1
 48
1.0
  6
BYLAYER
100
AcDbLine
 10
494.2658984927143138
 20
1120.7599142251606281
 30
0.0
 11
499.0443303927143006
 21
1120.7599142251606281
 31
0.0
  0
LINE
  5
C7
100
AcDbEntity
  8
0
 62
7
420
0
370
-1
 48
1.0
  6
BYLAYER
100
AcDbLine
 10
882.6744444754292545
 20
106.1094188057245447
 30
0.0
 11
882.6744444754292545
 21
-438.0194311942755121
 31
0.0
  0
LINE
  5
C8
100
AcDbEntity
  8
0
 62
7
420
0
370
-1
 48
1.0
  6
BYLAYER
100
AcDbLine
 10
499.0443303927143006
 20
1120.7599142251606281
 30
0.0
 11
499.0443303927143006
 21
860.9814742251608095
 31
0.0
  0
LINE
  5
C9
100
AcDbEntity
  8
0
 62
7
420
0
370
-1
 48
1.0
  6
BYLAYER
100
AcDbLine
 10
882.6744444754292545
 20
-438.0194311942755121
 30
0.0
 11
623.0726044754294435
 21
-438.0194311942755121
 31
0.0
  0
LINE
  5
CA
100
AcDbEntity
  8
0
 62
7
420
0
370
-1
 48
1.0
  6
BYLAYER
100
AcDbLine
 10
499.0443303927143006
 20
860.9814742251608095
 30
0.0
 11
494.2658984927143138
 21
860.9814742251608095
 31
0.0
  0
LINE
  5
CB
100
AcDbEntity
  8
0
 62
7
420
0
370
-1
 48
1.0
  6
BYLAYER
100
AcDbLine
 10
623.0726044754294435
 20
-438.0194311942755121
 30
0.0
 11
623.0726044754294435
 21
106.1094188057245447
 31
0.0
  0
LINE
  5
CC
100
AcDbEntity
  8
0
 62
7
420
0
370
-1
 48
1.0
  6
BYLAYER
100
AcDbLine
 10
494.2658984927143138
 20
860.9814742251608095
 30
0.0
 11
494.2658984927143138
 21
1120.7599142251606281
 31
0.0
  0
LINE
  5
CD
100
AcDbEntity
  8
0
 62
7
420
0
370
-1
 48
1.0
  6
BYLAYER
100
AcDbLine
 10
623.13523447542957
 20
-253.269791194275399
 30
0.0
 11
723.0323824754293582
 21
-253.269791194275399
 31
0.0
  0
LINE
  5
CE
100
AcDbEntity
  8
0
 62
7
420
0
370
-1
 48
1.0
  6
BYLAYER
100
AcDbLine
 10
499.0443354927143105
 20
1120.7599142251606281
 30
0.0
 11
503.8227673927142973
 21
1120.7599142251606281
 31
0.0
  0
LINE
  5
CF
100
AcDbEntity
  8
0
 62
7
420
0
370
-1
 48
1.0
  6
BYLAYER
100
AcDbLine
 10
723.0323824754293582
 20
-253.269791194275399
 30
0.0
 11
723.0323824754293582
 21
-258.1669383942753484
 31
0.0
  0
LINE
  5
D0
100
AcDbEntity
  8
0
 62
7
420
0
370
-1
 48
1.0
  6
BYLAYER
100
AcDbLine
 10
503.8227673927142973
 20
1120.7599142251606281
 30
0.0
 11
503.8227673927142973
 21
860.9814742251608095
 31
0.0
  0
LINE
  5
D1
100
AcDbEntity
  8
0
 62
7
420
0
370
-1
 48
1.0
  6
BYLAYER
100
AcDbLine
 10
723.0323824754293582
 20
-258.1669383942753484
 30
0.0
 11
623.13523447542957
 21
-258.1669383942753484
 31
0.0
  0
LINE
  5
D2
100
AcDbEntity
  8
0
 62
7
420
0
370
-1
 48
1.0
  6
BYLAYER
100
AcDbLine
 10
503.8227673927142973
 20
860.9814742251608095
 30
0.0
 11
499.0443354927143105
 21
860.9814742251608095
 31
0.0
  0
LINE
  5
D3
100
AcDbEntity
  8
0
 62
7
420
0
370
-1
 48
1.0
  6
BYLAYER
100
AcDbLine
 10
623.13523447542957
 20
-258.1669383942753484
 30
0.0
 11
623.13523447542957
 21
-253.269791194275399
 31
0.0
  0
LINE
  5
D4
100
AcDbEntity
  8
0
 62
7
420
0
370
-1
 48
1.0
  6
BYLAYER
100
AcDbLine
 10
499.0443354927143105
 20
860.9814742251608095
 30
0.0
 11
499.0443354927143105
 21
1120.7599142251606281
 31
0.0
  0
DIMENSION
  5
D5
100
AcDbEntity
  8
dimensions
 62
256
370
-1
 48
1.0
  6
BYLAYER
100
AcDbDimension
 10
81.1554813016098251
 20
650.6364158057244822
 30
0.0
 11
79.2804813016098251
 21
378.3729173057245134
 31
0.0
 70
0
 71
8
 72
2
 74
0
 75
0
 41
1.0
 42
0.0
  1

  3
Standard
100
AcDbAlignedDimension
 13
103.8689494754296447
 23
650.6364158057244822
 33
0.0
 14
103.8689494754296447
 24
106.1094188057245447
 34
0.0
 50
90.0
100
AcDbRotatedDimension
1001
ACAD
1000
DSTYLE
1002
{
1070
144
1040
1.0
1070
40
1040
1.0
1002
}
  0
LINE
  5
D6
100
AcDbEntity
  8
0
 62
7
420
0
370
-1
 48
1.0
  6
BYLAYER
100
AcDbLine
 10
503.8227654927143249
 20
1120.7599142251606281
 30
0.0
 11
508.6011973927143117
 21
1120.7599142251606281
 31
0.0
  0
DIMENSION
  5
D7
100
AcDbEntity
  8
dimensions
 62
256
370
-1
 48
1.0
  6
BYLAYER
100
AcDbDimension
 10
732.1036144754295947
 20
-253.2697911942755127
 30
0.0
 11
730.2286144754295947
 21
-263.5141606164976906
 31
0.0
 70
0
 71
8
 72
2
 74
0
 75
0
 41
1.0
 42
0.0
  1

  3
Standard
100
AcDbAlignedDimension
 13
723.0323824754289035
 23
-253.2697911942759674
 33
0.0
 14
723.0323824754293582
 24
-258.1669383942754621
 34
0.0
 50
90.0
100
AcDbRotatedDimension
1001
ACAD
1000
DSTYLE
1002
{
1070
144
1040
1.0
1070
40
1040
1.0
1002
}
  0
LINE
  5
D8
100
AcDbEntity
  8
0
 62
7
420
0
370
-1
 48
1.0
  6
BYLAYER
100
AcDbLine
 10
508.6011973927143117
 20
1120.7599142251606281
 30
0.0
 11
508.6011973927143117
 21
860.9814742251608095
 31
0.0
  0
DIMENSION
  5
D9
100
AcDbEntity
  8
dimensions
 62
256
370
-1
 48
1.0
  6
BYLAYER
100
AcDbDimension
 10
103.8689494754296447
 20
666.8873413589951724
 30
0.0
 11
233.8689569754296826
 21
668.7623413589951724
 31
0.0
 70
0
 71
8
 72
2
 74
0
 75
0
 41
1.0
 42
0.0
  1

  3
Standard
100
AcDbAlignedDimension
 13
103.8689494754296447
 23
650.6364158057244822
 33
0.0
 14
363.8689644754297206
 24
650.6364158057244822
 34
0.0
 50
0.0
100
AcDbRotatedDimension
1001
ACAD
1000
DSTYLE
1002
{
1070
144
1040
1.0
1070
40
1040
1.0
1002
}
  0
LINE
  5
DA
100
AcDbEntity
  8
0
 62
7
420
0
370
-1
 48
1.0
  6
BYLAYER
100
AcDbLine
 10
508.6011973927143117
 20
860.9814742251608095
 30
0.0
 11
503.8227654927143249
 21
860.9814742251608095
 31
0.0
  0
DIMENSION
  5
DB
100
AcDbEntity
  8
dimensions
 62
256
370
-1
 48
1.0
  6
BYLAYER
100
AcDbDimension
 10
623.13523447542957
 20
-246.5544594177479212
 30
0.0
 11
673.0838084754288957
 21
-244.6794594177479212
 31
0.0
 70
0
 71
8
 72
2
 74
0
 75
0
 41
1.0
 42
0.0
  1

  3
Standard
100
AcDbAlignedDimension
 13
623.1352344754288879
 23
-253.2697911942756264
 33
0.0
 14
723.0323824754289035
 24
-253.2697911942759674
 34
0.0
 50
0.0
100
AcDbRotatedDimension
1001
ACAD
1000
DSTYLE
1002
{
1070
144
1040
1.0
1070
40
1040
1.0
1002
}
  0
LINE
  5
DC
100
AcDbEntity
  8
0
 62
7
420
0
370
-1
 48
1.0
  6
BYLAYER
100
AcDbLine
 10
503.8227654927143249
 20
860.9814742251608095
 30
0.0
 11
503.8227654927143249
 21
1120.7599142251606281
 31
0.0
  0
LINE
  5
DD
100
AcDbEntity
  8
0
 62
7
420
0
370
-1
 48
1.0
  6
BYLAYER
100
AcDbLine
 10
508.6011954927142824
 20
1120.7599142251606281
 30
0.0
 11
513.3796273927142693
 21
1120.7599142251606281
 31
0.0
  0
LINE
  5
DE
100
AcDbEntity
  8
0
 62
7
420
0
370
-1
 48
1.0
  6
BYLAYER
100
AcDbLine
 10
513.3796273927142693
 20
1120.7599142251606281
 30
0.0
 11
513.3796273927142693
 21
860.9814742251608095
 31
0.0
  0
LINE
  5
DF
100
AcDbEntity
  8
0
 62
7
420
0
370
-1
 48
1.0
  6
BYLAYER
100
AcDbLine
 10
513.3796273927142693
 20
860.9814742251608095
 30
0.0
 11
508.6011954927142824
 21
860.9814742251608095
 31
0.0
  0
LINE
  5
E0
100
AcDbEntity
  8
0
 62
7
420
0
370
-1
 48
1.0
  6
BYLAYER
100
AcDbLine
 10
508.6011954927142824
 20
860.9814742251608095
 30
0.0
 11
508.6011954927142824
 21
1120.7599142251606281
 31
0.0
  0
LINE
  5
E1
100
AcDbEntity
  8
0
 62
7
420
0
370
-1
 48
1.0
  6
BYLAYER
100
AcDbLine
 10
513.37962549271424
 20
1120.7598992251607797
 30
0.0
 11
518.1580573927142268
 21
1120.7598992251607797
 31
0.0
  0
LINE
  5
E2
100
AcDbEntity
  8
0
 62
7
420
0
370
-1
 48
1.0
  6
BYLAYER
100
AcDbLine
 10
518.1580573927142268
 20
1120.7598992251607797
 30
0.0
 11
518.1580573927142268
 21
860.9814592251607337
 31
0.0
  0
LINE
  5
E3
100
AcDbEntity
  8
0
 62
7
420
0
370
-1
 48
1.0
  6
BYLAYER
100
AcDbLine
 10
518.1580573927142268
 20
860.9814592251607337
 30
0.0
 11
513.37962549271424
 21
860.9814592251607337
 31
0.0
  0
LINE
  5
E4
100
AcDbEntity
  8
0
 62
7
420
0
370
-1
 48
1.0
  6
BYLAYER
100
AcDbLine
 10
513.37962549271424
 20
860.9814592251607337
 30
0.0
 11
513.37962549271424
 21
1120.7598992251607797
 31
0.0
  0
LINE
  5
E5
100
AcDbEntity
  8
0
 62
7
420
0
370
-1
 48
1.0
  6
BYLAYER
100
AcDbLine
 10
518.1580554927143112
 20
1120.7598992251607797
 30
0.0
 11
522.936487392714298
 21
1120.7598992251607797
 31
0.0
  0
LINE
  5
E6
100
AcDbEntity
  8
0
 62
7
420
0
370
-1
 48
1.0
  6
BYLAYER
100
AcDbLine
 10
522.936487392714298
 20
1120.7598992251607797
 30
0.0
 11
522.936487392714298
 21
860.9814592251607337
 31
0.0
  0
LINE
  5
E7
100
AcDbEntity
  8
0
 62
7
420
0
370
-1
 48
1.0
  6
BYLAYER
100
AcDbLine
 10
522.936487392714298
 20
860.9814592251607337
 30
0.0
 11
518.1580554927143112
 21
860.9814592251607337
 31
0.0
  0
LINE
  5
E8
100
AcDbEntity
  8
0
 62
7
420
0
370
-1
 48
1.0
  6
BYLAYER
100
AcDbLine
 10
518.1580554927143112
 20
860.9814592251607337
 30
0.0
 11
518.1580554927143112
 21
1120.7598992251607797
 31
0.0
  0
DIMENSION
  5
E9
100
AcDbEntity
  8
dimensions
 62
256
370
-1
 48
1.0
  6
BYLAYER
100
AcDbDimension
 10
459.0443303927143006
 20
1120.7599222251608353
 30
0.0
 11
457.1693303927143006
 21
990.8707022251608123
 31
0.0
 70
0
 71
8
 72
2
 74
0
 75
0
 41
1.0
 42
0.0
  1

  3
Standard
100
AcDbAlignedDimension
 13
465.5953134927142401
 23
1120.7599222251608353
 33
0.0
 14
465.5953134927142969
 24
860.9814822251607893
 34
0.0
 50
90.0
100
AcDbRotatedDimension
1001
ACAD
1000
DSTYLE
1002
{
1070
144
1040
1.0
1070
40
1040
1.0
1002
}
  0
DIMENSION
  5
EA
100
AcDbEntity
  8
dimensions
 62
256
370
-1
 48
1.0
  6
BYLAYER
100
AcDbDimension
 10
470.3737453927143406
 20
855.6407525797676499
 30
0.0
 11
459.8314246038254396
 21
857.5157525797676499
 31
0.0
 70
0
 71
8
 72
2
 74
0
 75
0
 41
1.0
 42
0.0
  1

  3
Standard
100
AcDbAlignedDimension
 13
470.3737453927143406
 23
860.9814822251607893
 33
0.0
 14
465.5953134927142969
 24
860.9814822251607893
 34
0.0
 50
0.0
100
AcDbRotatedDimension
1001
ACAD
1000
DSTYLE
1002
{
1070
144
1040
1.0
1070
40
1040
1.0
1002
}
  0
ENDSEC
  0
SECTION
  2
OBJECTS
  0
DICTIONARY
  5
C
100
AcDbDictionary
280
0
281
1
  3
ACAD_GROUP
350
D
  3
ACAD_LAYOUT
350
1A
  3
ACAD_MLINESTYLE
350
17
  3
ACAD_PLOTSETTINGS
350
19
  3
ACAD_PLOTSTYLENAME
350
E
  3
AcDbVariableDictionary
350
EB
  3
QCAD_OBJECTS
350
EC
  0
DICTIONARY
  5
D
100
AcDbDictionary
280
0
281
1
  0
ACDBDICTIONARYWDFLT
  5
E
100
AcDbDictionary
281
1
  3
Normal
350
F
100
AcDbDictionaryWithDefault
340
F
  0
ACDBPLACEHOLDER
  5
F
  0
DICTIONARY
  5
17
100
AcDbDictionary
280
0
281
1
  3
Standard
350
18
  0
MLINESTYLE
  5
18
100
AcDbMlineStyle
  2
STANDARD
 70
0
  3

 62
256
 51
90.0
 52
90.0
 71
2
 49
0.5
 62
256
  6
BYLAYER
 49
-0.5
 62
256
  6
BYLAYER
  0
DICTIONARY
  5
19
100
AcDbDictionary
280
0
281
1
  0
DICTIONARY
  5
1A
100
AcDbDictionary
281
1
  3
Layout1
350
1E
  3
Layout2
350
26
  3
Model
350
22
  0
LAYOUT
  5
1E
100
AcDbPlotSettings
  1

  2
none_device
  4

  6

 40
0.0
 41
0.0
 42
0.0
 43
0.0
 44
0.0
 45
0.0
 46
0.0
 47
0.0
 48
0.0
 49
0.0
140
0.0
141
0.0
142
1.0
143
1.0
 70
688
 72
0
 73
0
 74
5
  7

 75
16
147
1.0
148
0.0
149
0.0
100
AcDbLayout
  1
Layout1
 70
1
 71
1
 10
0.0
 20
0.0
 11
420.0
 21
297.0
 12
0.0
 22
0.0
 32
0.0
 14
100000000000000000000.0
 24
100000000000000000000.0
 34
100000000000000000000.0
 15
-100000000000000000000.0
 25
-100000000000000000000.0
 35
-100000000000000000000.0
146
0.0
 13
0.0
 23
0.0
 33
0.0
 16
1.0
 26
0.0
 36
0.0
 17
0.0
 27
1.0
 37
0.0
 76
0
330
1B
  0
LAYOUT
  5
22
100
AcDbPlotSettings
  1

  2
none_device
  4

  6

 40
0.0
 41
0.0
 42
0.0
 43
0.0
 44
0.0
 45
0.0
 46
0.0
 47
0.0
 48
0.0
 49
0.0
140
0.0
141
0.0
142
1.0
143
1.0
 70
1712
 72
0
 73
0
 74
0
  7

 75
0
147
1.0
148
0.0
149
0.0
100
AcDbLayout
  1
Model
 70
1
 71
0
 10
0.0
 20
0.0
 11
12.0
 21
9.0
 12
0.0
 22
0.0
 32
0.0
 14
0.0
 24
0.0
 34
0.0
 15
0.0
 25
0.0
 35
0.0
146
0.0
 13
0.0
 23
0.0
 33
0.0
 16
1.0
 26
0.0
 36
0.0
 17
0.0
 27
1.0
 37
0.0
 76
0
330
1F
  0
LAYOUT
  5
26
100
AcDbPlotSettings
  1

  2
none_device
  4

  6

 40
0.0
 41
0.0
 42
0.0
 43
0.0
 44
0.0
 45
0.0
 46
0.0
 47
0.0
 48
0.0
 49
0.0
140
0.0
141
0.0
142
1.0
143
1.0
 70
688
 72
0
 73
0
 74
5
  7

 75
16
147
1.0
148
0.0
149
0.0
100
AcDbLayout
  1
Layout2
 70
1
 71
2
 10
0.0
 20
0.0
 11
12.0
 21
9.0
 12
0.0
 22
0.0
 32
0.0
 14
0.0
 24
0.0
 34
0.0
 15
0.0
 25
0.0
 35
0.0
146
0.0
 13
0.0
 23
0.0
 33
0.0
 16
1.0
 26
0.0
 36
0.0
 17
0.0
 27
1.0
 37
0.0
 76
0
330
23
  0
DICTIONARY
  5
EB
100
AcDbDictionary
281
1
  3
DIMASSOC
350
EE
  3
HIDETEXT
350
ED
  0
DICTIONARYVAR
  5
ED
100
DictionaryVariables
280
0
  1
2
  0
DICTIONARYVAR
  5
EE
100
DictionaryVariables
280
0
  1
1
  0
DICTIONARY
  5
EC
100
AcDbDictionary
281
1
  3
ColorSettings/BackgroundColor
350
EF
  3
ColorSettings/ColorMode
350
F0
  3
Grid/DisplayGrid00
350
F1
  3
Grid/DisplayGrid01
350
F2
  3
Grid/DisplayGrid02
350
F3
  3
Grid/DisplayGrid03
350
F4
  3
Grid/GridSpacingX00
350
F5
  3
Grid/GridSpacingX01
350
F6
  3
Grid/GridSpacingX02
350
F7
  3
Grid/GridSpacingX03
350
F8
  3
Grid/GridSpacingY00
350
F9
  3
Grid/GridSpacingY01
350
FA
  3
Grid/GridSpacingY02
350
FB
  3
Grid/GridSpacingY03
350
FC
  3
Grid/IsometricGrid00
350
FD
  3
Grid/IsometricGrid01
350
FE
  3
Grid/IsometricGrid02
350
FF
  3
Grid/IsometricGrid03
350
100
  3
Grid/IsometricProjection00
350
101
  3
Grid/IsometricProjection01
350
102
  3
Grid/IsometricProjection02
350
103
  3
Grid/IsometricProjection03
350
104
  3
Grid/MetaGridSpacingX00
350
105
  3
Grid/MetaGridSpacingX01
350
106
  3
Grid/MetaGridSpacingX02
350
107
  3
Grid/MetaGridSpacingX03
350
108
  3
Grid/MetaGridSpacingY00
350
109
  3
Grid/MetaGridSpacingY01
350
10A
  3
Grid/MetaGridSpacingY02
350
10B
  3
Grid/MetaGridSpacingY03
350
10C
  3
MultiPageSettings/Columns
350
10D
  3
MultiPageSettings/GlueMarginsBottom
350
10E
  3
MultiPageSettings/GlueMarginsLeft
350
10F
  3
MultiPageSettings/GlueMarginsRight
350
110
  3
MultiPageSettings/GlueMarginsTop
350
111
  3
MultiPageSettings/PrintCropMarks
350
112
  3
MultiPageSettings/Rows
350
113
  3
PageSettings/OffsetX
350
114
  3
PageSettings/OffsetY
350
115
  3
PageSettings/PageOrientation
350
116
  3
PageSettings/PaperHeight
350
117
  3
PageSettings/PaperSizeName
350
118
  3
PageSettings/PaperWidth
350
119
  3
PageSettings/PointSize
350
11A
  3
PageSettings/Scale
350
11B
  3
PageSettings/ShowPaperBorders
350
11C
  3
PageTagSettings/EnablePageTags
350
11D
  3
PageTagSettings/TagAlignment
350
11E
  3
PageTagSettings/TagFont
350
11F
  3
PageTagSettings/TagPosition
350
120
  3
QCADVersion
350
121
  3
UnitSettings/PaperUnit
350
122
  3
ViewportCenter
350
123
  3
ViewportHeight
350
124
  3
ViewportWidth
350
125
  0
XRECORD
  5
EF
330
EC
100
AcDbXrecord
280
1
1000
Blanca
  0
XRECORD
  5
F0
330
EC
100
AcDbXrecord
280
1
1000
FullColor
  0
XRECORD
  5
F1
330
EC
100
AcDbXrecord
280
1
290
1
  0
XRECORD
  5
F2
330
EC
100
AcDbXrecord
280
1
290
1
  0
XRECORD
  5
F3
330
EC
100
AcDbXrecord
280
1
290
1
  0
XRECORD
  5
F4
330
EC
100
AcDbXrecord
280
1
290
1
  0
XRECORD
  5
F5
330
EC
100
AcDbXrecord
280
1
1000
auto
  0
XRECORD
  5
F6
330
EC
100
AcDbXrecord
280
1
1000
auto
  0
XRECORD
  5
F7
330
EC
100
AcDbXrecord
280
1
1000
auto
  0
XRECORD
  5
F8
330
EC
100
AcDbXrecord
280
1
1000
auto
  0
XRECORD
  5
F9
330
EC
100
AcDbXrecord
280
1
1000
auto
  0
XRECORD
  5
FA
330
EC
100
AcDbXrecord
280
1
1000
auto
  0
XRECORD
  5
FB
330
EC
100
AcDbXrecord
280
1
1000
auto
  0
XRECORD
  5
FC
330
EC
100
AcDbXrecord
280
1
1000
auto
  0
XRECORD
  5
FD
330
EC
100
AcDbXrecord
280
1
290
0
  0
XRECORD
  5
FE
330
EC
100
AcDbXrecord
280
1
290
0
  0
XRECORD
  5
FF
330
EC
100
AcDbXrecord
280
1
290
0
  0
XRECORD
  5
100
330
EC
100
AcDbXrecord
280
1
290
0
  0
XRECORD
  5
101
330
EC
100
AcDbXrecord
280
1
 90
65537
  0
XRECORD
  5
102
330
EC
100
AcDbXrecord
280
1
 90
65537
  0
XRECORD
  5
103
330
EC
100
AcDbXrecord
280
1
 90
65537
  0
XRECORD
  5
104
330
EC
100
AcDbXrecord
280
1
 90
65537
  0
XRECORD
  5
105
330
EC
100
AcDbXrecord
280
1
1000
auto
  0
XRECORD
  5
106
330
EC
100
AcDbXrecord
280
1
1000
auto
  0
XRECORD
  5
107
330
EC
100
AcDbXrecord
280
1
1000
auto
  0
XRECORD
  5
108
330
EC
100
AcDbXrecord
280
1
1000
auto
  0
XRECORD
  5
109
330
EC
100
AcDbXrecord
280
1
1000
auto
  0
XRECORD
  5
10A
330
EC
100
AcDbXrecord
280
1
1000
auto
  0
XRECORD
  5
10B
330
EC
100
AcDbXrecord
280
1
1000
auto
  0
XRECORD
  5
10C
330
EC
100
AcDbXrecord
280
1
1000
auto
  0
XRECORD
  5
10D
330
EC
100
AcDbXrecord
280
1
 90
1
  0
XRECORD
  5
10E
330
EC
100
AcDbXrecord
280
1
 40
10.0
  0
XRECORD
  5
10F
330
EC
100
AcDbXrecord
280
1
 40
10.0
  0
XRECORD
  5
110
330
EC
100
AcDbXrecord
280
1
 40
10.0
  0
XRECORD
  5
111
330
EC
100
AcDbXrecord
280
1
 40
10.0
  0
XRECORD
  5
112
330
EC
100
AcDbXrecord
280
1
290
0
  0
XRECORD
  5
113
330
EC
100
AcDbXrecord
280
1
 90
1
  0
XRECORD
  5
114
330
EC
100
AcDbXrecord
280
1
 40
67.7955252665042849
  0
XRECORD
  5
115
330
EC
100
AcDbXrecord
280
1
 40
-495.166286229206662
  0
XRECORD
  5
116
330
EC
100
AcDbXrecord
280
1
1000
Portrait
  0
XRECORD
  5
117
330
EC
100
AcDbXrecord
280
1
1000
2500
  0
XRECORD
  5
118
330
EC
100
AcDbXrecord
280
1
1000
Personalizado
  0
XRECORD
  5
119
330
EC
100
AcDbXrecord
280
1
1000
900
  0
XRECORD
  5
11A
330
EC
100
AcDbXrecord
280
1
1000
0.5
  0
XRECORD
  5
11B
330
EC
100
AcDbXrecord
280
1
1000
1:1
  0
XRECORD
  5
11C
330
EC
100
AcDbXrecord
280
1
290
1
  0
XRECORD
  5
11D
330
EC
100
AcDbXrecord
280
1
290
0
  0
XRECORD
  5
11E
330
EC
100
AcDbXrecord
280
1
1000
Inside
  0
XRECORD
  5
11F
330
EC
100
AcDbXrecord
280
1
1000
Arial,10,-1,5,50,0,0,0,0,0
  0
XRECORD
  5
120
330
EC
100
AcDbXrecord
280
1
1000
TopLeft
  0
XRECORD
  5
121
330
EC
100
AcDbXrecord
280
1
1000
3.27.1
  0
XRECORD
  5
122
330
EC
100
AcDbXrecord
280
1
 90
4
  0
XRECORD
  5
124
330
EC
100
AcDbXrecord
280
1
 40
3078.7401574803152471
  0
XRECORD
  5
125
330
EC
100
AcDbXrecord
280
1
 40
5929.1338582677162776
  0
ENDSEC
  0
EOF
